<?xml version="1.0" encoding="utf-8"?>
<!-- Generator: Adobe Illustrator 17.1.0, SVG Export Plug-In . SVG Version: 6.00 Build 0)  -->
<!DOCTYPE svg PUBLIC "-//W3C//DTD SVG 1.1//EN" "http://www.w3.org/Graphics/SVG/1.1/DTD/svg11.dtd">
<svg version="1.1" id="Layer_1" xmlns="http://www.w3.org/2000/svg" xmlns:xlink="http://www.w3.org/1999/xlink" x="0px" y="0px"
	 viewBox="0 0 283.46 283.46" enable-background="new 0 0 283.46 283.46" xml:space="preserve">
<g>
	<path d="M141.73,45.97c-52.803,0-95.76,42.957-95.76,95.76s42.957,95.76,95.76,95.76c52.803,0,95.76-42.957,95.76-95.76
		S194.533,45.97,141.73,45.97z M49.759,141.73c0-50.713,41.259-91.971,91.971-91.971c0.4,0,0.797,0.01,1.195,0.015
		c9.25,15.281,14.798,32.456,13.182,50.521c-1.773,19.815-11.237,31.531-20.626,44.615l0.001,0
		c-0.005,0.007-0.009,0.011-0.009,0.011c-5.51,7.169-9.321,15.759-11.328,24.759c-2.978,13.353-1.962,27.999,2.363,41.04
		c1.666,5.025,3.751,9.924,6.321,14.548c1.163,2.092,2.386,4.147,3.641,6.184c0.376,0.61,0.858,1.344,1.425,2.163
		C88.954,231.597,49.759,191.158,49.759,141.73z M143.277,233.682c-3.48-4.792-6.479-9.924-8.817-15.424
		c-6.805-16.013-7.993-30.27-5.752-44.392c1.362-8.583,4.688-17.186,9.88-24.424c0.269-0.376,0.535-0.755,0.823-1.116
		c3.219-4.02,7.378-10.466,20.028-19.034c3.663-2.481,7.844-4.921,12.579-7.096c3.333-1.395,6.411-2.216,9.404-2.55
		c6.2-0.69,11.551,0.561,14.556,2.163c0.281,0.159,0.495,0.052,0.605-0.144c0.102-0.181,0.064-0.432-0.4-0.676
		c-3.891-2.05-8.329-2.93-12.436-3.183c3.267-0.96,6.734-1.771,10.408-2.389c6.137-1.032,10.956-1.005,11.541-1.015
		c0.693-0.012,2.165-0.045,2.362-0.05c0.515-0.014,0.519-0.751,0.019-0.786c0,0-18.025-1.287-37.027,5.316l-0.404,0.142
		c-6.199,2.189-12.488,5.223-18.279,9.421c12.977-25.544,8.219-56.088-9.092-78.668c50.003,0.828,90.427,41.755,90.427,91.952
		C233.701,191.926,193.278,232.852,143.277,233.682z"/>
	<g>
		<path d="M42.921,97.992l-17.842-0.363l-0.419,1.134l13.754,11.425l-0.713,1.928l0.557,0.205l1.745-4.722l-0.557-0.208
			l-0.796,2.154l-3.804-3.139l1.985-5.372l4.89,0.202l-0.727,1.97l0.557,0.206l2.56-6.929l-0.557-0.205L42.921,97.992z
			 M34.362,106.006l-6.473-5.342l8.319,0.344L34.362,106.006z"/>
		<path d="M52.527,73.041c0.565,0.453,1.033,0.906,1.409,1.357c0.372,0.453,0.624,0.923,0.753,1.42
			c0.13,0.495,0.118,1.035-0.035,1.612c-0.152,0.578-0.474,1.221-0.961,1.93l-1.553,2.257l-13.128-9.035l1.159-1.684l-0.489-0.337
			l-4.026,5.85l0.489,0.337l1.166-1.692l13.126,9.036l-1.166,1.691l0.49,0.336L57.1,75.455l-4.231-2.913L52.527,73.041z"/>
		<path d="M71.025,60.154L60.389,48.285l1.285-1.15c0.47-0.424,0.94-0.691,1.407-0.809c0.466-0.117,0.938-0.107,1.409,0.026
			c0.474,0.133,0.955,0.37,1.446,0.713c0.49,0.341,0.998,0.766,1.518,1.268l0.442-0.396l-3.565-3.978l-10.909,9.775l3.565,3.978
			l0.459-0.412c-0.442-0.573-0.807-1.123-1.098-1.645c-0.289-0.522-0.474-1.026-0.555-1.509c-0.081-0.485-0.039-0.951,0.13-1.404
			c0.168-0.451,0.487-0.887,0.957-1.309l1.285-1.152L68.798,62.15l-1.871,1.676l0.396,0.442l5.96-5.341l-0.396-0.441L71.025,60.154z
			"/>
		<path d="M94.024,39.641c0.394,0.884,0.607,1.699,0.642,2.445c0.035,0.746-0.148,1.425-0.548,2.043
			c-0.4,0.619-1.059,1.172-1.979,1.664l-2.48,1.319l-3.739-7.024l0.828-0.44c0.378-0.21,0.768-0.315,1.17-0.314
			c0.402,0.002,0.792,0.106,1.168,0.31c0.376,0.205,0.714,0.516,1.014,0.933l0.535-0.284l-2.495-4.685l-0.535,0.284
			c0.18,0.481,0.246,0.93,0.198,1.344c-0.048,0.412-0.187,0.778-0.418,1.095c-0.233,0.318-0.539,0.577-0.922,0.783l-0.827,0.44
			l-3.465-6.51l2.689-1.433c0.787-0.417,1.514-0.614,2.188-0.583c0.67,0.032,1.285,0.244,1.84,0.643
			c0.557,0.399,1.057,0.941,1.501,1.627l0.535-0.284l-2.201-4.132l-11.296,6.014l0.279,0.524l1.814-0.964l7.491,14.068l-1.816,0.963
			l0.279,0.524l11.488-6.115l-2.414-4.534L94.024,39.641z"/>
		<path d="M122.753,35.116c-0.167,0.091-0.366,0.168-0.603,0.226c-0.37,0.093-0.657,0.011-0.864-0.238
			c-0.207-0.253-0.381-0.605-0.522-1.065c-0.143-0.459-0.285-0.966-0.429-1.523c-0.148-0.555-0.342-1.099-0.587-1.63
			c-0.246-0.53-0.577-0.994-0.998-1.389c-0.418-0.392-0.966-0.655-1.64-0.787c-0.645-0.125-1.462-0.062-2.428,0.163
			c0.811-0.26,1.551-0.55,2.139-0.902c0.818-0.493,1.388-1.094,1.71-1.806c0.322-0.712,0.363-1.545,0.126-2.507
			c-0.239-0.961-0.683-1.692-1.336-2.192c-0.655-0.501-1.466-0.794-2.434-0.878c-0.972-0.086-2.047,0.019-3.228,0.311l-7.579,1.878
			l0.141,0.577l2.306-0.571l3.831,15.468l-2.306,0.57l0.143,0.577l7.524-1.861l-0.143-0.576l-2.316,0.572l-1.863-7.524l1.996-0.494
			c0.677-0.171,1.236-0.185,1.673-0.051c0.437,0.134,0.79,0.38,1.057,0.732c0.268,0.354,0.485,0.769,0.65,1.244
			c0.167,0.477,0.317,0.974,0.453,1.494c0.135,0.521,0.291,1.018,0.465,1.497c0.172,0.478,0.4,0.89,0.683,1.236
			c0.281,0.345,0.652,0.585,1.112,0.718c0.459,0.133,1.044,0.109,1.753-0.064c0.553-0.138,1.036-0.302,1.449-0.494
			c0.411-0.192,0.692-0.357,0.848-0.5l-0.341-0.515C123.066,34.924,122.918,35.023,122.753,35.116z M111.468,21.558
			c0.711-0.177,1.338-0.195,1.892-0.058c0.552,0.138,1.018,0.445,1.397,0.917c0.379,0.476,0.676,1.137,0.885,1.987
			c0.211,0.851,0.261,1.579,0.148,2.186c-0.111,0.61-0.379,1.104-0.801,1.487c-0.422,0.382-0.988,0.662-1.699,0.838l-2.038,0.504
			l-1.821-7.357L111.468,21.558z"/>
		<polygon points="146.567,17.855 149.134,17.895 148.952,29.494 141.53,17.182 137.956,17.128 137.957,17.129 135.4,17.089 
			135.391,17.682 137.753,17.718 137.507,33.652 135.143,33.616 135.134,34.21 140.783,34.298 140.792,33.703 138.132,33.664 
			138.38,17.822 148.656,34.649 149.5,34.663 149.763,17.906 152.171,17.943 152.18,17.35 146.576,17.262 		"/>
		<path d="M175.259,21.456l-1.166-0.321l-10.184,14.698l-1.982-0.54l-0.157,0.572l4.857,1.329l0.157-0.575l-2.214-0.602l2.799-4.067
			l5.522,1.51l0.225,4.89l-2.027-0.553l-0.155,0.575l7.124,1.946l0.157-0.572l-1.762-0.48L175.259,21.456z M167.725,31.431
			l4.756-6.911l0.382,8.316L167.725,31.431z"/>
		<path d="M194.29,34.554l0.535,0.305c0.405-0.601,0.811-1.122,1.214-1.56c0.405-0.44,0.826-0.775,1.259-1.004
			s0.89-0.337,1.372-0.32c0.481,0.017,0.996,0.182,1.545,0.495l1.497,0.856l-7.909,13.835l-2.18-1.246l-0.294,0.516l6.948,3.97
			l0.294-0.515l-2.171-1.243l7.909-13.834l1.496,0.854c0.55,0.314,0.951,0.673,1.21,1.078c0.259,0.408,0.4,0.857,0.422,1.346
			c0.022,0.493-0.052,1.024-0.222,1.595c-0.17,0.576-0.411,1.19-0.724,1.843l0.516,0.293l2.65-4.638l-12.717-7.267L194.29,34.554z"
			/>
		<polygon points="221.661,47.041 223.523,48.726 212.83,60.545 210.966,58.86 210.568,59.301 216.682,64.83 217.08,64.389 
			215.047,62.55 225.74,50.733 227.772,52.572 228.17,52.131 222.059,46.602 		"/>
		<polygon points="248.113,77.839 248.6,77.5 245.543,73.106 245.054,73.445 246.586,75.647 232.862,79.43 241.4,68.197 
			242.725,70.099 243.212,69.761 238.881,63.54 238.394,63.879 239.425,65.359 228.927,79.791 229.71,80.915 246.979,76.209 		"/>
		<path d="M258.902,99.136l-0.418-1.138l-17.878,0.23l-0.709-1.928l-0.555,0.203l1.734,4.727l0.557-0.205l-0.792-2.154l4.935-0.079
			l1.973,5.377l-3.853,3.019l-0.726-1.973l-0.557,0.203l2.547,6.935l0.557-0.205l-0.631-1.715L258.902,99.136z M246.403,98.783
			l8.392-0.134l-6.555,5.136L246.403,98.783z"/>
	</g>
	<g>
		<path d="M141.729,283.463c-78.152,0-141.731-63.582-141.731-141.733S63.577-0.003,141.729-0.003S283.462,63.578,283.462,141.73
			S219.881,283.463,141.729,283.463z M141.729,5.683C66.713,5.683,5.684,66.713,5.684,141.73s61.029,136.047,136.045,136.047
			s136.047-61.031,136.047-136.047S216.745,5.683,141.729,5.683z"/>
	</g>
	<path d="M257.911,142.878c0-6.251-0.737-12.388-1.688-18.372c0.734,5.264,1.113,10.641,1.113,16.107
		c0,61.549-48.104,111.844-108.764,115.388c-0.741-3.102-3.514-5.415-6.842-5.415c-3.328,0-6.101,2.313-6.842,5.415
		c-60.66-3.543-108.764-53.839-108.764-115.388c0-5.466,0.379-10.843,1.113-16.107c-0.951,5.984-1.688,12.121-1.688,18.372
		c0,61.836,48.314,112.368,109.249,115.957c0.57,3.322,3.447,5.857,6.932,5.857c3.485,0,6.362-2.534,6.932-5.857
		C209.597,255.246,257.911,204.713,257.911,142.878z"/>
</g>
</svg>
