<?xml version="1.0" encoding="utf-8"?>
<!-- Generator: Adobe Illustrator 17.1.0, SVG Export Plug-In . SVG Version: 6.00 Build 0)  -->
<!DOCTYPE svg PUBLIC "-//W3C//DTD SVG 1.1//EN" "http://www.w3.org/Graphics/SVG/1.1/DTD/svg11.dtd">
<svg version="1.1" id="Layer_1" xmlns="http://www.w3.org/2000/svg" xmlns:xlink="http://www.w3.org/1999/xlink" x="0px" y="0px"
	 viewBox="0 0 283.46 283.46" enable-background="new 0 0 283.46 283.46" xml:space="preserve">
<g>
	<g>
		<path d="M43.855,96.012L26.05,95.281l-0.442,1.121l13.495,11.693l-0.751,1.912l0.552,0.216l1.84-4.678l-0.552-0.217l-0.838,2.132
			l-3.734-3.214l2.094-5.323l4.879,0.303l-0.766,1.952l0.552,0.218l2.7-6.865l-0.553-0.216L43.855,96.012z M35.142,103.835
			l-6.35-5.467l8.299,0.516L35.142,103.835z"/>
		<path d="M58.707,72.411c-0.067,0.177-0.172,0.364-0.315,0.56c-0.222,0.309-0.494,0.434-0.814,0.376
			c-0.318-0.058-0.679-0.217-1.085-0.477c-0.403-0.26-0.838-0.555-1.307-0.887c-0.47-0.331-0.97-0.62-1.499-0.866
			c-0.529-0.248-1.081-0.386-1.655-0.418c-0.574-0.031-1.159,0.122-1.758,0.457c-0.575,0.321-1.161,0.897-1.755,1.698
			c0.456-0.725,0.836-1.425,1.057-2.075c0.307-0.906,0.355-1.731,0.143-2.48c-0.211-0.751-0.718-1.415-1.518-1.996
			c-0.8-0.579-1.61-0.85-2.432-0.811c-0.822,0.038-1.629,0.337-2.425,0.896c-0.794,0.561-1.549,1.333-2.262,2.316l-4.577,6.313
			l0.479,0.349l1.392-1.921l12.888,9.34l-1.392,1.922l0.479,0.346l4.544-6.269l-0.481-0.347l-1.398,1.93l-6.268-4.543l1.205-1.662
			c0.411-0.566,0.825-0.938,1.247-1.117c0.418-0.178,0.846-0.218,1.277-0.122c0.431,0.097,0.864,0.275,1.297,0.531
			c0.431,0.256,0.868,0.54,1.307,0.85c0.439,0.307,0.877,0.588,1.318,0.843c0.441,0.254,0.881,0.42,1.318,0.503
			c0.437,0.082,0.874,0.026,1.312-0.169c0.437-0.194,0.87-0.588,1.297-1.178c0.335-0.461,0.596-0.898,0.787-1.31
			c0.191-0.41,0.298-0.719,0.326-0.924l-0.592-0.175C58.822,72.062,58.774,72.235,58.707,72.411z M41.36,69.329
			c0.429-0.589,0.898-1.01,1.409-1.26c0.509-0.249,1.061-0.316,1.657-0.2c0.596,0.118,1.247,0.434,1.955,0.947
			c0.709,0.512,1.216,1.037,1.523,1.573c0.304,0.535,0.42,1.086,0.344,1.649c-0.076,0.567-0.328,1.144-0.757,1.736l-1.231,1.697
			l-6.13-4.443L41.36,69.329z"/>
		<polygon points="78.271,54.234 68.161,41.939 69.746,40.638 69.37,40.18 63.823,44.742 64.199,45.199 65.853,43.839 
			70.786,49.835 65.616,54.086 60.684,48.09 62.331,46.735 61.955,46.278 56.408,50.838 56.786,51.297 58.37,49.993 68.478,62.286 
			66.893,63.589 67.269,64.046 72.818,59.486 72.44,59.028 70.795,60.381 66.007,54.561 71.176,50.312 75.963,56.132 74.306,57.493 
			74.684,57.951 80.231,53.387 79.855,52.931 		"/>
		<polygon points="94.666,44.593 87.533,30.367 89.978,29.139 89.713,28.609 82.354,32.3 82.62,32.828 84.862,31.706 91.997,45.932 
			89.755,47.055 90.02,47.585 97.379,43.895 97.113,43.366 		"/>
		<path d="M115.692,20.91c0.468,0.113,0.881,0.336,1.238,0.673c0.357,0.338,0.672,0.77,0.95,1.299s0.529,1.136,0.761,1.824
			l0.574-0.147l-1.322-5.169l-14.172,3.623l1.322,5.17l0.598-0.153c-0.128-0.713-0.198-1.368-0.213-1.963
			c-0.015-0.597,0.052-1.128,0.204-1.595c0.152-0.466,0.405-0.862,0.763-1.185c0.357-0.321,0.84-0.56,1.451-0.717l1.668-0.427
			l3.944,15.418l-2.43,0.622l0.146,0.577l7.742-1.982l-0.146-0.574l-2.419,0.619l-3.942-15.421l1.668-0.425
			C114.685,20.822,115.225,20.799,115.692,20.91z"/>
		<path d="M145.682,29.19c-0.052,0.965-0.231,1.788-0.539,2.465c-0.309,0.679-0.781,1.201-1.416,1.57
			c-0.639,0.366-1.475,0.56-2.517,0.577l-2.804,0.047l-0.133-7.945l0.933-0.017c0.435-0.015,0.829,0.071,1.185,0.254
			c0.359,0.182,0.657,0.453,0.9,0.805c0.241,0.354,0.4,0.784,0.478,1.292l0.603-0.01l-0.089-5.299l-0.605,0.009
			c-0.059,0.51-0.204,0.938-0.433,1.284c-0.231,0.346-0.52,0.608-0.872,0.784c-0.35,0.179-0.742,0.27-1.173,0.278l-0.935,0.015
			l-0.123-7.364l3.043-0.051c0.888-0.016,1.625,0.143,2.208,0.475c0.583,0.332,1.031,0.804,1.346,1.409
			c0.315,0.607,0.513,1.316,0.596,2.129l0.603-0.009l-0.08-4.674l-12.777,0.214l0.007,0.592l2.054-0.032l0.268,15.912l-2.053,0.035
			l0.009,0.591l12.995-0.218l-0.087-5.13L145.682,29.19z"/>
		<polygon points="171.126,21.412 173.382,21.93 164.706,28.718 166.626,20.376 168.838,20.885 168.971,20.307 161.838,18.665 
			161.705,19.244 163.706,19.703 160.133,35.212 158.135,34.75 158.001,35.332 165.001,36.942 165.135,36.365 163.056,35.886 
			164.469,29.748 165.858,28.661 168.357,37.106 166.334,36.639 166.201,37.218 173.756,38.957 173.889,38.377 171.811,37.901 
			168.264,26.779 174.215,22.123 176.46,22.637 176.592,22.061 171.259,20.833 		"/>
		<path d="M188.123,31.813l0.55,0.274c0.37-0.622,0.744-1.163,1.123-1.626c0.378-0.462,0.777-0.817,1.198-1.072
			c0.418-0.255,0.868-0.386,1.351-0.396c0.479-0.011,1.003,0.124,1.568,0.406l1.54,0.766l-7.102,14.245l-2.243-1.119l-0.265,0.528
			l7.152,3.567l0.265-0.53l-2.234-1.114l7.1-14.243l1.542,0.768c0.565,0.28,0.987,0.616,1.268,1.008
			c0.281,0.391,0.446,0.83,0.496,1.317c0.05,0.489,0.007,1.023-0.13,1.604c-0.137,0.582-0.344,1.208-0.618,1.876l0.529,0.266
			l2.382-4.775l-13.089-6.525L188.123,31.813z"/>
		<path d="M227.646,52.322l0.383-0.452l-3.615-3.07l-0.383,0.45l1.555,1.322l-7.294,8.583c-0.761,0.9-1.499,1.508-2.216,1.827
			c-0.716,0.321-1.41,0.398-2.084,0.234s-1.333-0.519-1.975-1.064c-0.585-0.499-0.985-0.996-1.198-1.497
			c-0.213-0.501-0.278-1.006-0.193-1.516c0.085-0.513,0.291-1.035,0.616-1.572c0.326-0.535,0.733-1.089,1.22-1.661l7.146-8.413
			l1.745,1.486l0.383-0.453l-5.586-4.746l-0.383,0.451l1.564,1.329l-7.294,8.583c-1.275,1.5-1.831,2.893-1.669,4.177
			c0.159,1.284,1.033,2.596,2.613,3.941c1.396,1.185,2.734,1.72,4.016,1.603c1.281-0.118,2.53-0.892,3.746-2.322l7.292-8.585
			L227.646,52.322z"/>
		<path d="M237.896,76.356c0.761,0.577,1.531,0.88,2.31,0.915c0.777,0.034,1.568-0.239,2.369-0.815
			c0.803-0.577,1.314-1.262,1.536-2.054c0.22-0.792,0.191-1.653-0.091-2.584c-0.281-0.931-0.779-1.89-1.488-2.874l-4.559-6.329
			l-0.479,0.345l1.386,1.925l-12.916,9.302l-1.385-1.923l-0.481,0.345l4.524,6.28l0.481-0.345l-1.392-1.933l6.281-4.525l1.199,1.666
			c0.409,0.567,0.631,1.079,0.67,1.535c0.039,0.453-0.057,0.87-0.285,1.251c-0.228,0.379-0.531,0.734-0.912,1.063
			c-0.379,0.331-0.785,0.656-1.216,0.975c-0.429,0.319-0.835,0.648-1.214,0.986c-0.379,0.341-0.676,0.704-0.892,1.094
			c-0.217,0.391-0.3,0.822-0.252,1.297c0.048,0.478,0.285,1.011,0.713,1.603c0.333,0.463,0.664,0.85,0.996,1.16
			c0.329,0.308,0.587,0.508,0.774,0.599l0.354-0.506c-0.15-0.08-0.3-0.179-0.446-0.298c-0.148-0.119-0.291-0.277-0.433-0.475
			c-0.222-0.308-0.255-0.604-0.1-0.889c0.154-0.286,0.418-0.578,0.792-0.881c0.372-0.301,0.79-0.623,1.251-0.963
			c0.461-0.34,0.892-0.724,1.294-1.148c0.4-0.425,0.705-0.905,0.916-1.442c0.209-0.534,0.248-1.138,0.118-1.811
			c-0.124-0.647-0.487-1.383-1.059-2.198C236.803,75.362,237.349,75.942,237.896,76.356z M235.709,73.437l-1.227-1.703l6.143-4.425
			l1.227,1.705c0.426,0.591,0.677,1.168,0.755,1.732c0.078,0.561-0.033,1.105-0.331,1.635c-0.3,0.528-0.803,1.049-1.512,1.559
			c-0.709,0.512-1.366,0.826-1.971,0.949c-0.605,0.123-1.164,0.059-1.677-0.192C236.605,74.449,236.134,74.028,235.709,73.437z"/>
		<path d="M257.956,96.76l-0.439-1.125l-17.846,0.607l-0.75-1.91l-0.552,0.216l1.834,4.682l0.552-0.217l-0.837-2.134l4.924-0.183
			l2.086,5.325l-3.783,3.096l-0.764-1.953l-0.552,0.217l2.689,6.868l0.552-0.215l-0.666-1.699L257.956,96.76z M245.472,96.671
			l8.374-0.312l-6.435,5.266L245.472,96.671z"/>
	</g>
	<path d="M257.914,142.853c0-7.271-0.668-14.386-1.945-21.288c1.014,6.16,1.485,12.484,1.485,18.931
		c0,61.614-48.156,111.962-108.881,115.506c-0.741-3.102-3.514-5.415-6.842-5.415c-3.329,0-6.101,2.314-6.842,5.415
		c-60.725-3.544-108.881-53.892-108.881-115.506c0-6.447,0.429-12.771,1.443-18.931c-1.278,6.901-1.946,14.016-1.946,21.288
		c0,61.857,48.336,112.405,109.295,115.983c0.571,3.322,3.447,5.855,6.932,5.855c3.486,0,6.363-2.535,6.932-5.858
		C209.601,255.234,257.914,204.695,257.914,142.853z"/>
</g>
</svg>
