<?xml version="1.0" encoding="utf-8"?>
<!-- Generator: Adobe Illustrator 17.1.0, SVG Export Plug-In . SVG Version: 6.00 Build 0)  -->
<!DOCTYPE svg PUBLIC "-//W3C//DTD SVG 1.1//EN" "http://www.w3.org/Graphics/SVG/1.1/DTD/svg11.dtd">
<svg version="1.1" id="Layer_1" xmlns="http://www.w3.org/2000/svg" xmlns:xlink="http://www.w3.org/1999/xlink" x="0px" y="0px"
	 viewBox="0 0 283.46 283.46" enable-background="new 0 0 283.46 283.46" xml:space="preserve">
<g>
	<path d="M166.917,75.717c-12.928-7.692-28.636-7.372-42.51,0.728c-1.752,1.022-3.42,2.155-5.01,3.378
		c-0.957-0.487-2.024-0.788-3.171-0.788c-3.883,0-7.031,3.148-7.031,7.031c0,1.165,0.31,2.247,0.812,3.214
		c-5.523,7.176-9.355,15.768-11.366,24.781c-2.978,13.353-1.962,27.999,2.363,41.04c1.666,5.025,3.751,9.924,6.321,14.548
		c1.163,2.092,2.386,4.147,3.641,6.184c2.85,4.627,11.154,15.725,25.085,25.929c-4.795,3.596-10.681,8.653-17.11,8.081
		c-6.404-0.57-9.514-8.086-5.983-13.329c0.797-1.275,1.973-2.098,3.096-2.868c0.372-0.255,0.397-0.531,0.221-0.812
		c-0.324-0.517-1.394-0.064-2.093,0.425c-2.371,1.661-4.129,4.064-4.602,7.372c-0.65,5.589,2.366,9.901,7.634,11.302
		c6.135,1.632,11.43-1.502,16.14-4.612c1.297-0.856,2.567-1.752,3.833-2.654c0.881-0.628,1.5-1.026,1.5-1.026
		c0.648,0.476,1.909,1.361,2.557,1.836c2.562,1.883,5.173,3.735,8.014,5.177c5.056,2.566,11.316,3.483,15.945-0.462
		c4.29-3.657,5.182-10.046,2.043-14.732c-3.263-4.87-9.252-6.067-14.569-4.248c-2.764,0.945-5.32,2.435-7.74,4.051
		c-0.515,0.344-4.137,2.812-6.168,4.296l-0.151-0.122c-12.405-9.936-23.393-22.053-29.66-36.799
		c-6.805-16.013-7.993-30.27-5.752-44.392c1.435-9.04,5.05-18.099,10.728-25.565c0.722,0.251,1.486,0.415,2.293,0.415
		c3.883,0,7.031-3.148,7.031-7.031c0-0.817-0.166-1.589-0.422-2.318c1.062-0.807,2.149-1.583,3.291-2.293
		c11.927-7.408,26.487-8.341,38.682-1.089c13.221,7.863,19.218,23.71,15.645,38.578c-1.68,6.991-5.441,13.499-10.78,18.331
		c-5.336,4.828-11.587,8.011-20.86,7.906c-14.338-0.162-23.762-11.949-24.14-25.436c-0.186-6.654,1.767-12.938,6.342-17.737
		c5.001-5.245,12.985-7.674,19.891-5.1c6.137,2.287,10.539,8.106,10.156,14.774c-0.407,7.076-6.132,12.72-13.645,10.086
		c3.186-2.589,6.274-6.29,5.609-10.712c-0.689-4.577-5.055-7.424-9.361-6.639c-3.814,0.695-6.545,3.674-6.792,7.624
		c-0.383,4.334,2.783,7.872,5.958,10.332c-4.71,3.703-8.557,10.174-3.151,15.172c3.766,3.482,11.058,2.086,12.317-3.497
		c0.169-0.749,0.252-1.492,0.269-2.224c0.009-0.386-0.563-0.464-0.633-0.079c-0.209,1.447-0.498,2.526-1.4,3.782
		c-2.932,4.086-9.278,2.584-10.596-1.172c-1.122-3.198,0.334-6.253,2.684-8.594c0.577-0.575,1.5-1.441,2.374-2.075
		c0,0,0.673,0.326,1.686,0.702c1.886,0.7,3.897,0.944,5.9,0.847c6.034-0.579,10.26-5.084,11.545-10.798
		c2.844-12.643-8.371-23.492-21.48-21.951c-11.508,1.353-19.538,11.059-21.405,22.103c-2.031,12.018,3.267,24.872,13.834,31.113
		c10.89,6.432,24.46,4.843,34.515-2.174c11.303-7.888,16.84-19.909,17.191-32.979C186.48,94.835,178.217,82.441,166.917,75.717z
		 M143.618,200.086c0.024-0.018,0.077-0.056,0.172-0.121c4.376-2.759,9.745-7.305,15.318-6.184c4.247,0.854,7.051,4.548,6.553,8.897
		c-0.532,4.649-4.705,7.503-9.24,6.93c-5.649-0.714-10.619-4.637-15.04-7.937C142.123,201.137,142.866,200.605,143.618,200.086z
		 M145.2,120.631c-3.338-2.291-7.356-6.281-5.016-10.688c2.446-4.606,9.625-3.641,10.482,1.677
		C151.445,115.391,147.895,118.576,145.2,120.631z"/>
	<circle cx="145.141" cy="112.648" r="3.221"/>
	<circle cx="157.676" cy="201.672" r="4.552"/>
</g>
</svg>
