<?xml version="1.0" encoding="utf-8"?>
<!-- Generator: Adobe Illustrator 17.1.0, SVG Export Plug-In . SVG Version: 6.00 Build 0)  -->
<!DOCTYPE svg PUBLIC "-//W3C//DTD SVG 1.1//EN" "http://www.w3.org/Graphics/SVG/1.1/DTD/svg11.dtd">
<svg version="1.1" id="Layer_1" xmlns="http://www.w3.org/2000/svg" xmlns:xlink="http://www.w3.org/1999/xlink" x="0px" y="0px"
	 viewBox="0 0 283.46 283.46" enable-background="new 0 0 283.46 283.46" xml:space="preserve">
<g>
	<g>
		<path d="M141.73,283.462c-78.151,0-141.733-63.581-141.733-141.732c0-78.151,63.581-141.732,141.733-141.732
			s141.732,63.58,141.732,141.732C283.462,219.88,219.882,283.462,141.73,283.462z M141.73,5.684
			C66.713,5.684,5.684,66.714,5.684,141.73c0,75.015,61.03,136.046,136.047,136.046c75.016,0,136.046-61.031,136.046-136.046
			C277.776,66.714,216.746,5.684,141.73,5.684z"/>
	</g>
	<path d="M141.73,237.49c-52.803,0-95.759-42.957-95.759-95.759s42.957-95.759,95.759-95.759s95.759,42.957,95.759,95.759
		S194.533,237.49,141.73,237.49z M141.73,49.759c-50.713,0-91.971,41.259-91.971,91.971s41.259,91.971,91.971,91.971
		s91.971-41.259,91.971-91.971S192.443,49.759,141.73,49.759z"/>
</g>
</svg>
