<?xml version="1.0" encoding="utf-8"?>
<!-- Generator: Adobe Illustrator 17.1.0, SVG Export Plug-In . SVG Version: 6.00 Build 0)  -->
<!DOCTYPE svg PUBLIC "-//W3C//DTD SVG 1.1//EN" "http://www.w3.org/Graphics/SVG/1.1/DTD/svg11.dtd">
<svg version="1.1" id="Layer_1" xmlns="http://www.w3.org/2000/svg" xmlns:xlink="http://www.w3.org/1999/xlink" x="0px" y="0px"
	 viewBox="0 0 283.46 283.46" enable-background="new 0 0 283.46 283.46" xml:space="preserve">
<g>
	<g>
		<path d="M65.619,64.888L49.158,58.01l-0.807,0.903l8.606,15.666l-1.369,1.533l0.441,0.394l3.356-3.752l-0.442-0.396l-1.53,1.71
			l-2.388-4.314l3.815-4.269l4.475,1.981l-1.398,1.564l0.442,0.396l4.922-5.505l-0.444-0.396L65.619,64.888z M54.721,69.205
			l-4.063-7.341l7.613,3.37L54.721,69.205z"/>
		<path d="M83.651,45.23c0.359,0.627,0.629,1.22,0.813,1.777s0.242,1.09,0.182,1.597c-0.062,0.509-0.268,1.005-0.623,1.486
			c-0.354,0.483-0.887,0.964-1.601,1.444l-2.271,1.531l-8.905-13.21l1.694-1.142l-0.33-0.492l-5.887,3.968l0.33,0.492l1.704-1.149
			l8.906,13.212l-1.704,1.148l0.333,0.492l10.73-7.235l-2.871-4.257L83.651,45.23z"/>
		<polygon points="111.169,38.009 105.769,23.021 107.702,22.325 107.5,21.766 100.735,24.202 100.936,24.761 102.956,24.033 
			105.589,31.346 99.285,33.615 96.652,26.303 98.66,25.579 98.459,25.022 91.695,27.458 91.895,28.016 93.83,27.319 99.227,42.309 
			97.292,43.005 97.495,43.564 104.259,41.128 104.059,40.569 102.049,41.293 99.493,34.195 105.797,31.926 108.353,39.024 
			106.335,39.749 106.536,40.308 113.3,37.872 113.099,37.313 		"/>
		<path d="M136.698,29.218c0.022,0.97-0.093,1.803-0.346,2.504c-0.255,0.701-0.683,1.26-1.29,1.677
			c-0.605,0.416-1.431,0.676-2.469,0.774l-2.793,0.267l-0.754-7.92l0.932-0.089c0.431-0.048,0.831,0.006,1.201,0.161
			c0.372,0.155,0.689,0.402,0.959,0.735c0.268,0.333,0.461,0.751,0.577,1.251l0.603-0.057l-0.503-5.282l-0.603,0.057
			c-0.019,0.515-0.13,0.953-0.333,1.316c-0.202,0.365-0.47,0.646-0.807,0.851c-0.333,0.204-0.718,0.326-1.149,0.366l-0.934,0.089
			l-0.699-7.339l3.032-0.289c0.888-0.085,1.634,0.015,2.243,0.302c0.607,0.285,1.092,0.72,1.455,1.301
			c0.361,0.581,0.613,1.273,0.757,2.077l0.603-0.057l-0.442-4.659l-12.738,1.212l0.057,0.592l2.045-0.194l1.51,15.858l-2.045,0.196
			l0.056,0.59l12.951-1.235l-0.485-5.112L136.698,29.218z"/>
		<polygon points="167.383,19.899 166.912,19.819 160.282,31.994 157.698,18.253 155.031,17.8 155.031,17.8 154.898,17.777 
			154.725,17.748 154.725,17.748 152.702,17.405 152.602,17.99 154.3,18.279 151.633,33.986 150.046,33.715 149.946,34.3 
			153.781,34.952 153.883,34.367 152.264,34.093 154.889,18.634 158.077,35.914 158.784,36.034 167.3,20.391 164.616,36.192 
			162.806,35.883 162.706,36.469 169.04,37.543 169.14,36.96 167.554,36.69 170.221,20.983 171.807,21.251 171.907,20.667 
			167.384,19.899 		"/>
		<polygon points="186.668,26.316 188.974,27.306 182.698,41.95 180.392,40.96 180.156,41.504 187.73,44.75 187.965,44.206 
			185.444,43.127 191.724,28.485 194.24,29.562 194.475,29.018 186.901,25.771 		"/>
		<path d="M216.537,42.268l-6.769-4.677l-0.346,0.498l2.445,1.686l-6.924,10.017c-0.603,0.87-1.129,1.54-1.584,2.012
			c-0.457,0.472-0.888,0.746-1.296,0.82c-0.409,0.074-0.85-0.054-1.323-0.381c-0.244-0.168-0.45-0.37-0.613-0.603
			s-0.279-0.478-0.355-0.739c-0.021-0.074-0.008-0.144-0.021-0.218c0.015,0.024,0.019,0.062,0.038,0.082
			c0.248,0.202,0.526,0.333,0.827,0.4c0.3,0.065,0.598,0.046,0.892-0.056c0.292-0.104,0.544-0.307,0.757-0.614
			c0.218-0.313,0.324-0.627,0.324-0.94c0-0.316-0.074-0.602-0.218-0.859c-0.144-0.259-0.326-0.463-0.544-0.614
			c-0.259-0.178-0.54-0.279-0.844-0.305c-0.305-0.026-0.605,0.03-0.898,0.172c-0.291,0.141-0.546,0.37-0.766,0.689
			c-0.283,0.407-0.424,0.866-0.426,1.379c-0.002,0.511,0.137,1.022,0.42,1.531c0.279,0.509,0.709,0.962,1.285,1.362
			c0.59,0.405,1.179,0.637,1.771,0.696c0.594,0.059,1.175,0.006,1.744-0.163c0.568-0.167,1.107-0.396,1.62-0.689
			c0.515-0.294,0.981-0.59,1.401-0.892l7.185-10.393l1.875,1.297L216.537,42.268z"/>
		<path d="M235.057,59.146l-0.805-0.903l-16.541,6.78l-1.364-1.534l-0.444,0.396l3.348,3.755l0.442-0.394l-1.525-1.712l4.558-1.885
			l3.809,4.274l-2.474,4.221l-1.397-1.566l-0.444,0.394l4.916,5.51l0.442-0.394l-1.216-1.362L235.057,59.146z M223.308,63.409
			l7.752-3.205l-4.208,7.18L223.308,63.409z"/>
	</g>
	<path d="M258.288,142.476c0-20.962-5.587-40.606-15.272-57.603c9.119,16.532,14.308,35.535,14.308,55.751
		c0,61.543-48.099,111.833-108.753,115.377c-0.741-3.101-3.514-5.415-6.842-5.415c-3.328,0-6.101,2.313-6.842,5.415
		c-60.654-3.543-108.753-53.834-108.753-115.377c0-20.212,5.188-39.213,14.304-55.743c-9.69,17.001-15.315,36.626-15.315,57.595
		c0,62.066,48.506,112.784,109.674,116.361c0.572,3.321,3.447,5.854,6.932,5.854c3.486,0,6.362-2.534,6.932-5.857
		C209.808,255.233,258.288,204.526,258.288,142.476z"/>
</g>
</svg>
