<?xml version="1.0" encoding="utf-8"?>
<!-- Generator: Adobe Illustrator 17.1.0, SVG Export Plug-In . SVG Version: 6.00 Build 0)  -->
<!DOCTYPE svg PUBLIC "-//W3C//DTD SVG 1.1//EN" "http://www.w3.org/Graphics/SVG/1.1/DTD/svg11.dtd">
<svg version="1.1" id="Layer_1" xmlns="http://www.w3.org/2000/svg" xmlns:xlink="http://www.w3.org/1999/xlink" x="0px" y="0px"
	 viewBox="0 0 283.46 283.46" enable-background="new 0 0 283.46 283.46" xml:space="preserve">
<g>
	<path d="M141.73,237.49c-52.803,0-95.76-42.957-95.76-95.76s42.957-95.76,95.76-95.76s95.76,42.957,95.76,95.76
		S194.533,237.49,141.73,237.49z M141.73,49.759c-50.713,0-91.971,41.259-91.971,91.971s41.259,91.971,91.971,91.971
		s91.971-41.259,91.971-91.971S192.443,49.759,141.73,49.759z"/>
	<g>
		<path d="M141.729,283.463c-78.152,0-141.731-63.582-141.731-141.733S63.577-0.003,141.729-0.003S283.462,63.578,283.462,141.73
			S219.881,283.463,141.729,283.463z M141.729,5.683C66.713,5.683,5.684,66.713,5.684,141.73s61.029,136.047,136.045,136.047
			s136.047-61.031,136.047-136.047S216.745,5.683,141.729,5.683z"/>
	</g>
</g>
</svg>
