<?xml version="1.0" encoding="utf-8"?>
<!-- Generator: Adobe Illustrator 17.1.0, SVG Export Plug-In . SVG Version: 6.00 Build 0)  -->
<!DOCTYPE svg PUBLIC "-//W3C//DTD SVG 1.1//EN" "http://www.w3.org/Graphics/SVG/1.1/DTD/svg11.dtd">
<svg version="1.1" id="Layer_1" xmlns="http://www.w3.org/2000/svg" xmlns:xlink="http://www.w3.org/1999/xlink" x="0px" y="0px"
	 viewBox="0 0 283.46 283.46" enable-background="new 0 0 283.46 283.46" xml:space="preserve">
<g>
	<path d="M128.709,173.866c1.362-8.584,4.688-17.186,9.88-24.424c0.269-0.376,0.535-0.755,0.823-1.116
		c3.219-4.02,7.378-10.466,20.028-19.034c3.663-2.481,7.844-4.921,12.579-7.096c3.333-1.395,6.411-2.216,9.404-2.55
		c6.2-0.69,11.551,0.561,14.556,2.163c0.281,0.159,0.495,0.052,0.605-0.144c0.102-0.181,0.064-0.432-0.4-0.676
		c-3.891-2.05-8.329-2.93-12.436-3.183c3.267-0.96,6.734-1.771,10.408-2.389c6.137-1.032,10.955-1.005,11.541-1.015
		c0.693-0.012,2.165-0.045,2.362-0.05c0.515-0.014,0.519-0.751,0.019-0.786c0,0-18.025-1.287-37.027,5.316l-0.404,0.142l0,0
		c-6.199,2.189-12.488,5.223-18.279,9.421c13.356-26.29,7.929-57.878-10.637-80.627c9.97,15.763,16.063,33.639,14.378,52.475
		c-1.773,19.815-11.237,31.531-20.626,44.616l0.001,0c-0.006,0.007-0.009,0.011-0.009,0.011c-5.51,7.169-9.321,15.759-11.328,24.759
		c-2.978,13.353-1.962,27.999,2.363,41.04c1.666,5.025,3.751,9.924,6.321,14.548c1.163,2.092,2.386,4.147,3.641,6.184
		c0.647,1.05,1.576,2.434,2.786,4.065c0.822,0.021,1.646,0.032,2.473,0.032c0.971,0,1.938-0.017,2.902-0.046
		c-4.061-5.306-7.536-11.043-10.172-17.246C127.656,202.245,126.468,187.988,128.709,173.866z"/>
</g>
</svg>
