<?xml version="1.0" encoding="utf-8"?>
<!-- Generator: Adobe Illustrator 17.1.0, SVG Export Plug-In . SVG Version: 6.00 Build 0)  -->
<!DOCTYPE svg PUBLIC "-//W3C//DTD SVG 1.1//EN" "http://www.w3.org/Graphics/SVG/1.1/DTD/svg11.dtd">
<svg version="1.1" id="Layer_1" xmlns="http://www.w3.org/2000/svg" xmlns:xlink="http://www.w3.org/1999/xlink" x="0px" y="0px"
	 viewBox="0 0 283.46 283.46" enable-background="new 0 0 283.46 283.46" xml:space="preserve">
<g>
	<rect x="120.927" y="119.457" width="2.592" height="6.33"/>
	<rect x="120.927" y="128.952" width="2.592" height="6.33"/>
	<rect x="120.927" y="109.962" width="2.592" height="6.33"/>
	<rect x="120.927" y="138.447" width="2.592" height="6.33"/>
	<rect x="120.927" y="166.931" width="2.592" height="6.33"/>
	<rect x="120.927" y="157.436" width="2.592" height="6.33"/>
	<rect x="120.927" y="147.942" width="2.592" height="6.33"/>
	<path d="M120.927,100.971v5.826h2.592v-5.826c3.264-0.609,5.735-3.47,5.735-6.909c0-1.061-0.236-2.066-0.657-2.968l5.072-3.643
		l-1.512-2.105l-5.07,3.642c-1.263-1.211-2.975-1.956-4.863-1.956c-3.883,0-7.031,3.148-7.031,7.031
		C115.192,97.502,117.663,100.363,120.927,100.971z"/>
	<path d="M163.673,205.116c-1.296,0-2.464,0.542-3.293,1.411l-6.519-3.437l-1.209,2.293l6.547,3.451
		c-0.05,0.27-0.078,0.549-0.078,0.834c0,2.514,2.038,4.552,4.552,4.552c2.514,0,4.552-2.038,4.552-4.552
		S166.187,205.116,163.673,205.116z"/>
	<path d="M127.747,187.865c0-2.604-1.803-4.787-4.228-5.37v-6.068h-2.592v6.068c-2.425,0.583-4.228,2.766-4.228,5.37
		c0,3.051,2.473,5.524,5.524,5.524c1.649,0,3.129-0.724,4.141-1.87l6.226,3.281l1.209-2.293l-6.222-3.279
		C127.688,188.792,127.747,188.335,127.747,187.865z"/>
	<path d="M154.359,120.645c0-1.317-0.792-2.448-1.925-2.947v-4.211h-2.592v4.211c-1.133,0.499-1.925,1.63-1.925,2.947
		c0,1.779,1.442,3.221,3.221,3.221C152.917,123.865,154.359,122.423,154.359,120.645z"/>
	<path d="M144.195,79.889l4.57-3.283c0.326,0.235,0.689,0.423,1.077,0.553v3.924h2.592V77.16c1.61-0.541,2.77-2.062,2.77-3.854
		c0-2.246-1.821-4.066-4.066-4.066c-2.246,0-4.066,1.82-4.066,4.066c0,0.416,0.063,0.818,0.179,1.196l-4.568,3.282L144.195,79.889z"
		/>
	<rect x="136.88" y="79.377" transform="matrix(0.5834 0.8122 -0.8122 0.5834 124.6628 -77.8058)" width="2.592" height="6.481"/>
	<rect x="149.842" y="94.044" width="2.592" height="6.481"/>
	<rect x="149.842" y="103.765" width="2.592" height="6.481"/>
	<rect x="149.842" y="84.323" width="2.592" height="6.481"/>
	
		<rect x="135.686" y="195.381" transform="matrix(-0.8845 -0.4666 0.4666 -0.8845 170.0254 435.4558)" width="6.481" height="2.592"/>
	
		<rect x="144.284" y="199.917" transform="matrix(-0.8845 -0.4666 0.4666 -0.8845 184.1192 448.0142)" width="6.481" height="2.592"/>
</g>
</svg>
