<?xml version="1.0" encoding="utf-8"?>
<!-- Generator: Adobe Illustrator 17.1.0, SVG Export Plug-In . SVG Version: 6.00 Build 0)  -->
<!DOCTYPE svg PUBLIC "-//W3C//DTD SVG 1.1//EN" "http://www.w3.org/Graphics/SVG/1.1/DTD/svg11.dtd">
<svg version="1.1" id="Layer_1" xmlns="http://www.w3.org/2000/svg" xmlns:xlink="http://www.w3.org/1999/xlink" x="0px" y="0px"
	 viewBox="0 0 283.46 283.46" enable-background="new 0 0 283.46 283.46" xml:space="preserve">
<g>
	<g>
		<path d="M36.666,101.093l-11.028-3.593l0.669-2.054l-0.581-0.189l-1.505,4.621l0.581,0.189l0.639-1.964l11.028,3.593
			c1.153,0.374,2.014,0.841,2.585,1.402c0.571,0.561,0.906,1.182,1.006,1.86c0.099,0.678,0.031,1.382-0.206,2.111
			c-0.223,0.684-0.519,1.201-0.888,1.549c-0.368,0.35-0.801,0.57-1.299,0.658c-0.499,0.088-1.061,0.076-1.686-0.038
			c-0.626-0.112-1.307-0.288-2.043-0.528l-10.804-3.519l0.727-2.233l-0.581-0.188l-2.715,8.335l0.58,0.19l0.659-2.019l11.027,3.59
			c1.927,0.627,3.48,0.589,4.657-0.125c1.178-0.709,2.121-2.151,2.828-4.324c0.602-1.845,0.603-3.377,0.005-4.599
			C39.721,102.6,38.503,101.692,36.666,101.093z"/>
		<polygon points="41.217,68.45 40.7,68.128 37.671,72.974 38.189,73.299 39.57,71.088 47.952,76.324 35.365,76.669 32.665,80.988 
			32.666,80.988 31.266,83.228 31.783,83.552 33.076,81.48 46.974,90.163 45.681,92.233 46.198,92.556 49.264,87.649 48.746,87.327 
			47.315,89.614 33.469,80.966 54.065,80.407 54.525,79.67 39.911,70.541 		"/>
		<polygon points="65.871,65.254 54.102,53.853 56.062,51.828 55.623,51.404 48.87,58.376 49.307,58.8 51.113,56.938 62.882,68.339 
			61.077,70.202 61.515,70.626 68.27,63.655 67.831,63.23 		"/>
		<path d="M74.463,37.365l1.93-1.337l-0.355-0.512l-7.948,5.512l0.354,0.511l2.507-1.74l7.137,10.294
			c0.62,0.892,1.071,1.648,1.349,2.265c0.279,0.614,0.367,1.139,0.263,1.572c-0.103,0.434-0.416,0.832-0.937,1.193
			c-0.27,0.187-0.563,0.337-0.877,0.443c-0.315,0.11-0.634,0.17-0.955,0.18c-0.052,0.001-0.094-0.026-0.145-0.028
			c0.045-0.014,0.103-0.001,0.145-0.024c0.38-0.234,0.683-0.538,0.906-0.907c0.225-0.369,0.338-0.77,0.34-1.199
			c0.004-0.428-0.134-0.845-0.411-1.244c-0.278-0.398-0.616-0.675-1.019-0.828c-0.402-0.155-0.812-0.202-1.228-0.143
			c-0.414,0.06-0.784,0.2-1.104,0.423c-0.361,0.251-0.635,0.568-0.824,0.957c-0.187,0.39-0.267,0.802-0.236,1.244
			c0.028,0.441,0.184,0.863,0.466,1.269c0.387,0.56,0.891,0.93,1.514,1.114c0.622,0.183,1.298,0.186,2.03,0.012
			c0.731-0.172,1.46-0.513,2.186-1.015c0.677-0.469,1.205-0.987,1.586-1.557c0.38-0.568,0.647-1.172,0.795-1.81
			c0.149-0.636,0.209-1.29,0.182-1.959c-0.028-0.673-0.11-1.341-0.248-2.007L74.463,37.365z"/>
		<path d="M108.847,38.898L96.891,24.98l-1.977,0.778l0.668,18.376l-1.977,0.78l0.225,0.568l4.824-1.905l-0.222-0.566l-2.196,0.865
			l-0.193-5.01l5.011-1.978l3.163,3.838l-1.757,0.692l0.224,0.567l8.122-3.206l-0.223-0.568L108.847,38.898z M96.018,38.221
			l-0.301-7.807l4.929,5.98L96.018,38.221z"/>
		<path d="M131.881,19.648c-0.565-0.691-1.357-1.179-2.38-1.466c-1.022-0.286-2.293-0.326-3.812-0.118l-8.572,1.17l0.083,0.603
			l2.105-0.286l2.214,16.235l-2.104,0.288l0.082,0.603l8.455-1.153l-0.081-0.603l-2.094,0.286l-0.934-6.852l2.22-0.303
			c1.513-0.207,2.724-0.578,3.634-1.118c0.909-0.538,1.544-1.21,1.905-2.018c0.358-0.808,0.47-1.715,0.332-2.722
			C132.797,21.184,132.445,20.336,131.881,19.648z M128.132,25.858c-0.155,0.455-0.383,0.835-0.681,1.134
			c-0.298,0.303-0.684,0.485-1.157,0.55l-1.535,0.21l-1.198-8.781l1.535-0.209c0.473-0.066,0.894,0.013,1.263,0.23
			c0.368,0.219,0.69,0.528,0.962,0.93c0.271,0.401,0.492,0.855,0.659,1.362c0.168,0.504,0.288,1.019,0.358,1.536
			c0.071,0.52,0.093,1.044,0.066,1.568C128.379,24.913,128.287,25.403,128.132,25.858z"/>
		<path d="M160.627,35.255c-0.2,0.031-0.425,0.032-0.674,0.007c-0.404-0.041-0.666-0.219-0.783-0.535
			c-0.118-0.314-0.162-0.72-0.13-1.214c0.03-0.496,0.078-1.042,0.143-1.632c0.063-0.59,0.076-1.185,0.04-1.781
			c-0.039-0.6-0.181-1.161-0.431-1.685c-0.251-0.524-0.668-0.969-1.253-1.33c-0.584-0.363-1.405-0.598-2.464-0.704l-0.664-0.067
			c0.976,0.043,1.886,0.027,2.663-0.109c1.056-0.183,1.893-0.557,2.51-1.125c0.615-0.565,0.974-1.354,1.078-2.368
			c0.101-1.012-0.108-1.87-0.63-2.576c-0.522-0.705-1.285-1.264-2.29-1.677c-1.005-0.413-2.176-0.688-3.515-0.822l-8.409-0.853
			l-0.061,0.607l2.242,0.227l-1.654,16.303l-2.243-0.227l-0.061,0.607l8.747,0.886l0.062-0.608l-2.231-0.226l0.812-8.011l1.086,0.11
			c0.716,0.073,1.259,0.252,1.627,0.537c0.368,0.285,0.613,0.645,0.733,1.084c0.121,0.436,0.174,0.919,0.161,1.45
			c-0.016,0.528-0.049,1.072-0.102,1.628c-0.052,0.557-0.069,1.1-0.054,1.631c0.019,0.528,0.121,1.016,0.313,1.464
			c0.191,0.448,0.517,0.82,0.985,1.114c0.465,0.294,1.122,0.485,1.97,0.572c0.771,0.078,1.445,0.085,2.022,0.022
			c0.577-0.064,0.962-0.138,1.161-0.218l-0.151-0.617C161.013,35.178,160.827,35.224,160.627,35.255z M153.313,18.154
			c0.739,0.076,1.346,0.254,1.816,0.534c0.472,0.28,0.801,0.702,0.992,1.274c0.19,0.569,0.236,1.337,0.138,2.302
			c-0.097,0.958-0.298,1.708-0.601,2.251c-0.303,0.545-0.712,0.914-1.227,1.113c-0.516,0.203-1.148,0.263-1.894,0.187l-1.04-0.105
			l0.777-7.661L153.313,18.154z"/>
		<path d="M187.099,25.993c-0.788-0.769-1.756-1.36-2.903-1.776c-1.148-0.416-2.272-0.583-3.371-0.497
			c-1.1,0.084-2.129,0.387-3.086,0.903c-0.959,0.521-1.81,1.228-2.557,2.129c-0.745,0.9-1.337,1.956-1.778,3.169
			c-0.44,1.215-0.67,2.401-0.691,3.565c-0.021,1.16,0.163,2.245,0.552,3.252c0.389,1.005,0.982,1.895,1.78,2.667
			c0.798,0.772,1.798,1.375,2.997,1.808c1.198,0.435,2.352,0.611,3.455,0.528c1.104-0.082,2.127-0.388,3.07-0.911
			c0.944-0.524,1.779-1.239,2.505-2.145c0.728-0.905,1.311-1.965,1.752-3.18c0.44-1.212,0.663-2.404,0.67-3.57
			c0.006-1.167-0.194-2.259-0.602-3.272C188.481,27.651,187.885,26.76,187.099,25.993z M185.377,30.556
			c-0.248,1.012-0.589,2.124-1.025,3.329c-0.439,1.209-0.877,2.282-1.319,3.226c-0.441,0.943-0.902,1.721-1.384,2.338
			c-0.481,0.616-1.002,1.036-1.56,1.257c-0.559,0.223-1.177,0.212-1.855-0.034c-0.676-0.244-1.161-0.631-1.451-1.161
			c-0.291-0.531-0.424-1.185-0.399-1.967c0.025-0.781,0.172-1.675,0.441-2.679c0.267-1.006,0.62-2.112,1.058-3.319
			c0.438-1.209,0.884-2.278,1.34-3.216c0.455-0.938,0.932-1.713,1.428-2.325c0.496-0.609,1.021-1.027,1.577-1.251
			c0.555-0.222,1.145-0.222,1.771,0.006c0.617,0.223,1.068,0.6,1.351,1.126c0.284,0.527,0.42,1.184,0.41,1.97
			C185.751,28.642,185.623,29.543,185.377,30.556z"/>
		<path d="M214.317,40.906l0.337-0.524l-8.129-5.241l-0.336,0.523l2.564,1.655l-6.785,10.528c-0.59,0.912-1.116,1.617-1.578,2.109
			c-0.463,0.495-0.913,0.776-1.354,0.845c-0.441,0.069-0.928-0.065-1.461-0.412c-0.276-0.176-0.524-0.39-0.745-0.639
			c-0.221-0.249-0.397-0.521-0.528-0.815c-0.02-0.046-0.012-0.093-0.029-0.14c0.029,0.036,0.04,0.092,0.075,0.121
			c0.363,0.261,0.758,0.425,1.185,0.492c0.428,0.065,0.84,0.018,1.238-0.144c0.398-0.165,0.729-0.448,0.991-0.858
			c0.264-0.407,0.39-0.825,0.379-1.256c-0.011-0.431-0.123-0.828-0.338-1.189c-0.214-0.359-0.485-0.647-0.813-0.861
			c-0.369-0.238-0.768-0.368-1.199-0.393c-0.428-0.025-0.843,0.059-1.238,0.255c-0.396,0.195-0.727,0.5-0.996,0.916
			c-0.368,0.572-0.519,1.18-0.452,1.823c0.07,0.646,0.324,1.273,0.764,1.881c0.441,0.612,1.031,1.156,1.775,1.634
			c0.692,0.445,1.371,0.736,2.043,0.869c0.672,0.137,1.331,0.151,1.975,0.045c0.647-0.106,1.273-0.299,1.884-0.581
			c0.609-0.281,1.196-0.613,1.759-0.996l7.04-10.922L214.317,40.906z"/>
		<path d="M223.446,63.497l0.44,0.439l4.293-4.306l-0.441-0.441c-0.491,0.251-0.993,0.409-1.506,0.473
			c-0.512,0.066-0.991,0.032-1.436-0.096c-0.446-0.131-0.826-0.352-1.142-0.666l-0.241-0.24l5.353-5.37l1.355,1.351
			c0.648,0.645,1.092,1.336,1.332,2.072c0.238,0.735,0.292,1.481,0.157,2.236c-0.135,0.756-0.436,1.492-0.906,2.206l0.433,0.429
			l3.397-3.408l-9.886-9.853l-0.432,0.434l1.507,1.501l-11.568,11.605l-1.505-1.501l-0.431,0.434l10.052,10.018L226,67.07
			l-0.433-0.432c-0.824,0.583-1.642,0.958-2.455,1.126c-0.813,0.166-1.616,0.114-2.406-0.155c-0.793-0.269-1.569-0.783-2.327-1.54
			l-1.181-1.177l5.784-5.802l0.241,0.24c0.316,0.315,0.531,0.703,0.646,1.165c0.113,0.462,0.133,0.954,0.06,1.476
			C223.854,62.496,223.692,63.005,223.446,63.497z"/>
		<polygon points="243.141,80.403 250.556,81.799 251.833,83.881 252.353,83.561 249.412,78.77 248.892,79.091 250.108,81.069 
			238.845,78.949 246.079,74.508 247.308,76.509 247.828,76.188 243.24,68.718 242.719,69.037 243.832,70.846 229.867,79.42 
			228.754,77.609 228.235,77.928 232.644,85.112 233.164,84.792 232.115,83.081 238.04,79.443 238.969,79.618 234.731,87.342 
			233.718,85.691 233.197,86.012 237.907,93.685 238.427,93.366 237.28,91.494 		"/>
		<path d="M257.939,95.828l-5.519,1.778l0.198,0.614c0.748-0.103,1.457-0.141,2.126-0.118c0.669,0.024,1.28,0.127,1.833,0.311
			c0.552,0.184,1.022,0.457,1.41,0.821c0.389,0.366,0.674,0.831,0.856,1.396l0.288,0.893l-15.598,5.022l-0.791-2.461l-0.58,0.188
			l2.895,8.994l0.58-0.186l-0.788-2.447l15.598-5.02l0.291,0.904c0.183,0.565,0.222,1.111,0.118,1.633
			c-0.104,0.52-0.326,1.016-0.667,1.486c-0.343,0.467-0.778,0.908-1.307,1.324c-0.527,0.417-1.125,0.798-1.795,1.146l0.187,0.581
			l5.52-1.776L257.939,95.828z"/>
	</g>
	<g>
		<polygon fill-rule="evenodd" clip-rule="evenodd" points="84.576,99.606 123.73,138.76 123.73,99.606 		"/>
		<polygon fill-rule="evenodd" clip-rule="evenodd" points="120.468,197.134 89.144,197.134 131.814,154.464 131.814,107.48 
			210.127,107.48 		"/>
	</g>
	<g>
		<path d="M141.73,283.462c-78.151,0-141.733-63.581-141.733-141.732c0-78.151,63.581-141.732,141.733-141.732
			s141.732,63.58,141.732,141.732C283.462,219.88,219.882,283.462,141.73,283.462z M141.73,5.684
			C66.714,5.684,5.684,66.714,5.684,141.73c0,75.015,61.03,136.046,136.047,136.046c75.016,0,136.046-61.031,136.046-136.046
			C277.776,66.714,216.747,5.684,141.73,5.684z"/>
	</g>
	<path d="M264.734,141.73c0-3.895-3.158-7.053-7.053-7.053c-3.895,0-7.053,3.158-7.053,7.053c0,3.326,2.31,6.097,5.409,6.84
		c-3.42,57.69-49.755,104.008-107.467,107.425c-0.743-3.099-3.514-5.41-6.84-5.41c-3.326,0-6.097,2.311-6.84,5.409
		C77.191,252.577,30.864,206.263,27.426,148.57c3.097-0.744,5.406-3.514,5.406-6.839c0-3.895-3.158-7.053-7.053-7.053
		s-7.053,3.158-7.053,7.053c0,3.485,2.534,6.361,5.856,6.932c3.488,59.188,51.022,106.709,110.216,110.176
		c0.572,3.321,3.448,5.853,6.932,5.853c3.484,0,6.36-2.532,6.932-5.852c59.207-3.466,106.75-50.992,110.219-110.177
		C262.201,148.09,264.734,145.215,264.734,141.73z"/>
	<path d="M141.73,237.49c-52.803,0-95.759-42.957-95.759-95.759s42.957-95.759,95.759-95.759s95.759,42.957,95.759,95.759
		S194.533,237.49,141.73,237.49z M141.73,49.759c-50.713,0-91.971,41.259-91.971,91.971s41.259,91.971,91.971,91.971
		s91.971-41.259,91.971-91.971S192.443,49.759,141.73,49.759z"/>
</g>
</svg>
